<svg width="32" height="32" fill="none" xmlns="http://www.w3.org/2000/svg"><circle cx="16" cy="16" r="16" fill="#EE4713"/><path fill-rule="evenodd" clip-rule="evenodd" d="M9.17 10.34c-.265-.262-.708-.017-.627.346l2.728 12.336c.038.17.19.293.364.293h9.268a.373.373 0 00.364-.293l2.728-12.336c.08-.363-.363-.608-.627-.346l-2.911 2.884a.267.267 0 01-.376 0l-3.55-3.516a.373.373 0 00-.525 0l-3.55 3.516a.267.267 0 01-.375 0l-2.91-2.884zm4.646 9.774a.213.213 0 00-.214.214v.64c0 .118.096.213.214.213h4.906a.213.213 0 00.214-.213v-.64a.213.213 0 00-.214-.213h-4.906z" fill="#fff"/></svg>